STARTFONT 2.1
COMMENT Exported by Fony v1.4.7
FONT audiofont_9x15
SIZE 15 75 75
FONTBOUNDINGBOX 18 14 0 -3
STARTPROPERTIES 6
COPYRIGHT "Public domain font.  Share and enjoy."
RESOLUTION_X 75
RESOLUTION_Y 75
FONT_ASCENT 12
FONT_DESCENT 3
DEFAULT_CHAR 0
ENDPROPERTIES
CHARS 256
STARTCHAR 000
ENCODING 0
SWIDTH 648 0
DWIDTH 9 0
BBX 8 11 0 0
BITMAP
DB
DB
00
C3
C3
00
C3
C3
00
DB
DB
ENDCHAR
STARTCHAR 001
ENCODING 1
SWIDTH 576 0
DWIDTH 8 0
BBX 7 11 0 0
BITMAP
10
18
94
52
34
18
34
52
94
18
10
ENDCHAR
STARTCHAR 002
ENCODING 2
SWIDTH 792 0
DWIDTH 11 0
BBX 10 11 0 0
BITMAP
0800
0C00
4A00
2900
9A40
CCC0
9A40
2900
4A00
0C00
0800
ENDCHAR
STARTCHAR 003
ENCODING 3
SWIDTH 1008 0
DWIDTH 14 0
BBX 13 12 0 -1
BITMAP
0A80
2020
0000
8208
0880
2020
0200
0880
0000
0200
0700
0200
ENDCHAR
STARTCHAR 004
ENCODING 4
SWIDTH 1008 0
DWIDTH 14 0
BBX 13 12 0 -1
BITMAP
0F80
3060
4010
8708
18C0
2020
0700
0880
0000
0200
0700
0200
ENDCHAR
STARTCHAR 005
ENCODING 5
SWIDTH 720 0
DWIDTH 10 0
BBX 9 12 0 -1
BITMAP
0800
1C00
0800
4800
EB80
4B80
3B80
0900
0900
0E00
0800
0800
ENDCHAR
STARTCHAR 006
ENCODING 6
SWIDTH 432 0
DWIDTH 6 0
BBX 5 11 0 0
BITMAP
20
20
F8
00
F8
F8
F8
F8
F8
70
20
ENDCHAR
STARTCHAR 007
ENCODING 7
SWIDTH 1008 0
DWIDTH 14 0
BBX 13 11 0 0
BITMAP
3FE0
6030
4010
4710
4D90
C898
4D90
4710
4010
4010
7FF0
ENDCHAR
STARTCHAR 008
ENCODING 8
SWIDTH 864 0
DWIDTH 12 0
BBX 11 11 0 0
BITMAP
0E00
3F80
71C0
64C0
CE60
DB60
CE60
64C0
71C0
3F80
0E00
ENDCHAR
STARTCHAR 009
ENCODING 9
SWIDTH 144 0
DWIDTH 2 0
BBX 0 0 0 0
BITMAP
ENDCHAR
STARTCHAR 010
ENCODING 10
SWIDTH 144 0
DWIDTH 2 0
BBX 0 0 0 0
BITMAP
ENDCHAR
STARTCHAR 011
ENCODING 11
SWIDTH 1008 0
DWIDTH 14 0
BBX 13 11 0 0
BITMAP
0020
0010
A0A8
0A10
0020
0400
0020
0A10
A0A8
0010
0020
ENDCHAR
STARTCHAR 012
ENCODING 12
SWIDTH 1080 0
DWIDTH 15 0
BBX 14 11 0 0
BITMAP
0010
0018
F07C
0998
0210
0200
0210
0C98
F07C
0018
0010
ENDCHAR
STARTCHAR 013
ENCODING 13
SWIDTH 144 0
DWIDTH 2 0
BBX 0 0 0 0
BITMAP
ENDCHAR
STARTCHAR 014
ENCODING 14
SWIDTH 1008 0
DWIDTH 14 0
BBX 13 10 0 0
BITMAP
2AA0
0000
8008
0000
8008
0040
4090
1140
0080
0040
ENDCHAR
STARTCHAR 015
ENCODING 15
SWIDTH 1008 0
DWIDTH 14 0
BBX 13 10 0 0
BITMAP
3FE0
4010
8008
8008
8008
8048
40D0
39E0
00C0
0040
ENDCHAR
STARTCHAR 016
ENCODING 16
SWIDTH 1008 0
DWIDTH 14 0
BBX 13 10 0 0
BITMAP
3FE0
4010
8208
8608
8208
8248
40D0
39E0
00C0
0040
ENDCHAR
STARTCHAR 017
ENCODING 17
SWIDTH 792 0
DWIDTH 11 0
BBX 10 11 0 0
BITMAP
C000
F000
F800
FE00
FF80
FFC0
FF80
FE00
F800
F000
C000
ENDCHAR
STARTCHAR 018
ENCODING 18
SWIDTH 864 0
DWIDTH 12 0
BBX 11 11 0 0
BITMAP
F1E0
F1E0
F1E0
F1E0
F1E0
F1E0
F1E0
F1E0
F1E0
F1E0
F1E0
ENDCHAR
STARTCHAR 019
ENCODING 19
SWIDTH 864 0
DWIDTH 12 0
BBX 11 11 0 0
BITMAP
FFE0
FFE0
FFE0
FFE0
FFE0
FFE0
FFE0
FFE0
FFE0
FFE0
FFE0
ENDCHAR
STARTCHAR 020
ENCODING 20
SWIDTH 864 0
DWIDTH 12 0
BBX 11 11 0 0
BITMAP
C060
C1E0
C3E0
CFE0
FFE0
FFE0
FFE0
CFE0
C3E0
C1E0
C060
ENDCHAR
STARTCHAR 021
ENCODING 21
SWIDTH 864 0
DWIDTH 12 0
BBX 11 11 0 0
BITMAP
C060
F060
F860
FE60
FFE0
FFE0
FFE0
FE60
F860
F060
C060
ENDCHAR
STARTCHAR 022
ENCODING 22
SWIDTH 1008 0
DWIDTH 14 0
BBX 13 11 0 0
BITMAP
0600
0700
4780
47C0
97F8
A7F8
97F8
47C0
4780
0710
0600
ENDCHAR
STARTCHAR 023
ENCODING 23
SWIDTH 720 0
DWIDTH 10 0
BBX 9 11 0 0
BITMAP
6000
7100
7200
6400
4980
1380
2780
4C00
9800
3000
6000
ENDCHAR
STARTCHAR 024
ENCODING 24
SWIDTH 648 0
DWIDTH 9 0
BBX 8 11 0 0
BITMAP
C0
A0
90
88
87
81
87
88
90
A0
C0
ENDCHAR
STARTCHAR 025
ENCODING 25
SWIDTH 1008 0
DWIDTH 14 0
BBX 13 11 0 0
BITMAP
0300
0700
0F10
1F10
FF48
FF28
FF48
1F10
0F10
0700
0300
ENDCHAR
STARTCHAR 026
ENCODING 26
SWIDTH 720 0
DWIDTH 10 0
BBX 9 11 0 0
BITMAP
0300
0600
0C80
1900
F200
E400
C900
1300
2700
4700
0300
ENDCHAR
STARTCHAR 027
ENCODING 27
SWIDTH 648 0
DWIDTH 9 0
BBX 8 11 0 0
BITMAP
03
05
09
11
E1
81
E1
11
09
05
03
ENDCHAR
STARTCHAR 028
ENCODING 28
SWIDTH 216 0
DWIDTH 3 0
BBX 0 0 0 0
BITMAP
ENDCHAR
STARTCHAR 029
ENCODING 29
SWIDTH 216 0
DWIDTH 3 0
BBX 0 0 0 0
BITMAP
ENDCHAR
STARTCHAR 030
ENCODING 30
SWIDTH 864 0
DWIDTH 12 0
BBX 11 10 0 0
BITMAP
31C0
7360
F360
3360
3360
3360
3360
3360
3360
79C0
ENDCHAR
STARTCHAR 031
ENCODING 31
SWIDTH 1296 0
DWIDTH 18 0
BBX 17 10 0 0
BITMAP
31C700
736D80
F36D80
336D80
336D80
336D80
336D80
336D80
336D80
79C700
ENDCHAR
STARTCHAR 032
ENCODING 32
SWIDTH 432 0
DWIDTH 6 0
BBX 0 0 0 0
BITMAP
ENDCHAR
STARTCHAR 033
ENCODING 33
SWIDTH 216 0
DWIDTH 3 0
BBX 2 10 0 0
BITMAP
C0
C0
C0
C0
C0
C0
C0
C0
00
C0
ENDCHAR
STARTCHAR 034
ENCODING 34
SWIDTH 432 0
DWIDTH 6 0
BBX 5 3 0 7
BITMAP
D8
D8
D8
ENDCHAR
STARTCHAR 035
ENCODING 35
SWIDTH 576 0
DWIDTH 8 0
BBX 7 8 0 1
BITMAP
6C
6C
FE
6C
6C
FE
6C
6C
ENDCHAR
STARTCHAR 036
ENCODING 36
SWIDTH 576 0
DWIDTH 8 0
BBX 7 11 0 -1
BITMAP
10
7C
D6
D0
F0
7C
1E
16
D6
7C
10
ENDCHAR
STARTCHAR 037
ENCODING 37
SWIDTH 648 0
DWIDTH 9 0
BBX 8 10 0 0
BITMAP
43
E6
E6
4C
18
18
32
67
67
C2
ENDCHAR
STARTCHAR 038
ENCODING 38
SWIDTH 648 0
DWIDTH 9 0
BBX 8 10 0 0
BITMAP
38
6C
6C
78
30
79
CF
C6
CE
7B
ENDCHAR
STARTCHAR 039
ENCODING 39
SWIDTH 216 0
DWIDTH 3 0
BBX 2 4 0 6
BITMAP
C0
C0
C0
C0
ENDCHAR
STARTCHAR 040
ENCODING 40
SWIDTH 432 0
DWIDTH 6 0
BBX 5 12 0 -1
BITMAP
18
30
60
60
C0
C0
C0
C0
60
60
30
18
ENDCHAR
STARTCHAR 041
ENCODING 41
SWIDTH 432 0
DWIDTH 6 0
BBX 5 12 0 -1
BITMAP
C0
60
30
30
18
18
18
18
30
30
60
C0
ENDCHAR
STARTCHAR 042
ENCODING 42
SWIDTH 576 0
DWIDTH 8 0
BBX 7 5 0 2
BITMAP
6C
38
FE
38
6C
ENDCHAR
STARTCHAR 043
ENCODING 43
SWIDTH 648 0
DWIDTH 9 0
BBX 8 7 0 1
BITMAP
18
18
18
FF
18
18
18
ENDCHAR
STARTCHAR 044
ENCODING 44
SWIDTH 288 0
DWIDTH 4 0
BBX 3 5 0 -3
BITMAP
E0
E0
60
60
C0
ENDCHAR
STARTCHAR 045
ENCODING 45
SWIDTH 648 0
DWIDTH 9 0
BBX 8 1 0 4
BITMAP
FF
ENDCHAR
STARTCHAR 046
ENCODING 46
SWIDTH 360 0
DWIDTH 5 0
BBX 4 3 0 -1
BITMAP
60
F0
60
ENDCHAR
STARTCHAR 047
ENCODING 47
SWIDTH 648 0
DWIDTH 9 0
BBX 8 10 0 0
BITMAP
03
06
06
0C
18
18
30
60
60
C0
ENDCHAR
STARTCHAR 048
ENCODING 48
SWIDTH 648 0
DWIDTH 9 0
BBX 8 10 0 0
BITMAP
18
3C
66
C3
C3
C3
C3
66
3C
18
ENDCHAR
STARTCHAR 049
ENCODING 49
SWIDTH 504 0
DWIDTH 7 0
BBX 6 10 0 0
BITMAP
30
70
F0
30
30
30
30
30
30
FC
ENDCHAR
STARTCHAR 050
ENCODING 50
SWIDTH 648 0
DWIDTH 9 0
BBX 8 10 0 0
BITMAP
3C
66
C3
03
06
0C
18
30
60
FF
ENDCHAR
STARTCHAR 051
ENCODING 51
SWIDTH 648 0
DWIDTH 9 0
BBX 8 10 0 0
BITMAP
7C
C6
03
06
1C
06
03
03
C6
7C
ENDCHAR
STARTCHAR 052
ENCODING 52
SWIDTH 648 0
DWIDTH 9 0
BBX 8 10 0 0
BITMAP
06
0E
1E
36
66
C6
FF
06
06
06
ENDCHAR
STARTCHAR 053
ENCODING 53
SWIDTH 648 0
DWIDTH 9 0
BBX 8 10 0 0
BITMAP
FE
C0
C0
DC
E6
03
03
C3
66
3C
ENDCHAR
STARTCHAR 054
ENCODING 54
SWIDTH 648 0
DWIDTH 9 0
BBX 8 10 0 0
BITMAP
3C
66
C2
C0
DC
E6
C3
C3
66
3C
ENDCHAR
STARTCHAR 055
ENCODING 55
SWIDTH 648 0
DWIDTH 9 0
BBX 8 10 0 0
BITMAP
FF
03
03
06
0C
0C
18
18
18
18
ENDCHAR
STARTCHAR 056
ENCODING 56
SWIDTH 648 0
DWIDTH 9 0
BBX 8 10 0 0
BITMAP
3C
66
C3
66
3C
66
C3
C3
66
3C
ENDCHAR
STARTCHAR 057
ENCODING 57
SWIDTH 648 0
DWIDTH 9 0
BBX 8 10 0 0
BITMAP
3C
66
C3
C3
67
3B
03
43
66
3C
ENDCHAR
STARTCHAR 058
ENCODING 58
SWIDTH 360 0
DWIDTH 5 0
BBX 4 8 0 -1
BITMAP
60
F0
60
00
00
60
F0
60
ENDCHAR
STARTCHAR 059
ENCODING 59
SWIDTH 360 0
DWIDTH 5 0
BBX 4 10 0 -3
BITMAP
60
F0
60
00
00
70
70
30
30
60
ENDCHAR
STARTCHAR 060
ENCODING 60
SWIDTH 504 0
DWIDTH 7 0
BBX 6 10 0 0
BITMAP
0C
18
30
60
C0
C0
60
30
18
0C
ENDCHAR
STARTCHAR 061
ENCODING 61
SWIDTH 648 0
DWIDTH 9 0
BBX 8 4 0 2
BITMAP
FF
00
00
FF
ENDCHAR
STARTCHAR 062
ENCODING 62
SWIDTH 504 0
DWIDTH 7 0
BBX 6 10 0 0
BITMAP
C0
60
30
18
0C
0C
18
30
60
C0
ENDCHAR
STARTCHAR 063
ENCODING 63
SWIDTH 576 0
DWIDTH 8 0
BBX 7 10 0 0
BITMAP
7C
C6
C6
06
0C
18
30
00
30
30
ENDCHAR
STARTCHAR 064
ENCODING 64
SWIDTH 648 0
DWIDTH 9 0
BBX 8 10 0 0
BITMAP
3C
66
C3
CF
DB
DB
CE
C0
63
3E
ENDCHAR
STARTCHAR 065
ENCODING 65
SWIDTH 648 0
DWIDTH 9 0
BBX 8 10 0 0
BITMAP
18
3C
66
C3
C3
C3
FF
C3
C3
C3
ENDCHAR
STARTCHAR 066
ENCODING 66
SWIDTH 648 0
DWIDTH 9 0
BBX 8 10 0 0
BITMAP
FC
C6
C3
C6
FC
C6
C3
C3
C6
FC
ENDCHAR
STARTCHAR 067
ENCODING 67
SWIDTH 648 0
DWIDTH 9 0
BBX 8 10 0 0
BITMAP
3E
63
C1
C0
C0
C0
C0
C1
63
3E
ENDCHAR
STARTCHAR 068
ENCODING 68
SWIDTH 648 0
DWIDTH 9 0
BBX 8 10 0 0
BITMAP
FC
C6
C3
C3
C3
C3
C3
C3
C6
FC
ENDCHAR
STARTCHAR 069
ENCODING 69
SWIDTH 576 0
DWIDTH 8 0
BBX 7 10 0 0
BITMAP
FE
C0
C0
C0
FC
C0
C0
C0
C0
FE
ENDCHAR
STARTCHAR 070
ENCODING 70
SWIDTH 648 0
DWIDTH 9 0
BBX 8 10 0 0
BITMAP
FF
C0
C0
C0
FC
C0
C0
C0
C0
C0
ENDCHAR
STARTCHAR 071
ENCODING 71
SWIDTH 648 0
DWIDTH 9 0
BBX 8 10 0 0
BITMAP
3E
63
C0
C0
C0
C7
C3
C3
63
3E
ENDCHAR
STARTCHAR 072
ENCODING 72
SWIDTH 648 0
DWIDTH 9 0
BBX 8 10 0 0
BITMAP
C3
C3
C3
C3
FF
C3
C3
C3
C3
C3
ENDCHAR
STARTCHAR 073
ENCODING 73
SWIDTH 504 0
DWIDTH 7 0
BBX 6 10 0 0
BITMAP
FC
30
30
30
30
30
30
30
30
FC
ENDCHAR
STARTCHAR 074
ENCODING 74
SWIDTH 504 0
DWIDTH 7 0
BBX 6 10 0 0
BITMAP
3C
0C
0C
0C
0C
0C
0C
8C
D8
70
ENDCHAR
STARTCHAR 075
ENCODING 75
SWIDTH 648 0
DWIDTH 9 0
BBX 8 10 0 0
BITMAP
C3
C6
CC
D8
F0
F0
D8
CC
C6
C3
ENDCHAR
STARTCHAR 076
ENCODING 76
SWIDTH 576 0
DWIDTH 8 0
BBX 7 10 0 0
BITMAP
C0
C0
C0
C0
C0
C0
C0
C0
C0
FE
ENDCHAR
STARTCHAR 077
ENCODING 77
SWIDTH 648 0
DWIDTH 9 0
BBX 8 10 0 0
BITMAP
C3
E7
FF
DB
DB
DB
C3
C3
C3
C3
ENDCHAR
STARTCHAR 078
ENCODING 78
SWIDTH 648 0
DWIDTH 9 0
BBX 8 10 0 0
BITMAP
C3
E3
F3
F3
DB
DB
CF
C7
C7
C3
ENDCHAR
STARTCHAR 079
ENCODING 79
SWIDTH 648 0
DWIDTH 9 0
BBX 8 10 0 0
BITMAP
3C
66
C3
C3
C3
C3
C3
C3
66
3C
ENDCHAR
STARTCHAR 080
ENCODING 80
SWIDTH 648 0
DWIDTH 9 0
BBX 8 10 0 0
BITMAP
FE
C3
C3
C3
FE
C0
C0
C0
C0
C0
ENDCHAR
STARTCHAR 081
ENCODING 81
SWIDTH 648 0
DWIDTH 9 0
BBX 8 10 0 0
BITMAP
3C
66
C3
C3
C3
C3
DB
CF
66
3D
ENDCHAR
STARTCHAR 082
ENCODING 82
SWIDTH 648 0
DWIDTH 9 0
BBX 8 10 0 0
BITMAP
FE
C3
C3
C3
FE
F8
CC
C6
C3
C3
ENDCHAR
STARTCHAR 083
ENCODING 83
SWIDTH 648 0
DWIDTH 9 0
BBX 8 10 0 0
BITMAP
7E
C3
C0
C0
7E
03
03
03
C3
7E
ENDCHAR
STARTCHAR 084
ENCODING 84
SWIDTH 648 0
DWIDTH 9 0
BBX 8 10 0 0
BITMAP
FF
18
18
18
18
18
18
18
18
18
ENDCHAR
STARTCHAR 085
ENCODING 85
SWIDTH 648 0
DWIDTH 9 0
BBX 8 10 0 0
BITMAP
C3
C3
C3
C3
C3
C3
C3
C3
66
3C
ENDCHAR
STARTCHAR 086
ENCODING 86
SWIDTH 648 0
DWIDTH 9 0
BBX 8 10 0 0
BITMAP
C3
C3
C3
66
66
66
3C
3C
18
18
ENDCHAR
STARTCHAR 087
ENCODING 87
SWIDTH 648 0
DWIDTH 9 0
BBX 8 10 0 0
BITMAP
C3
C3
C3
C3
DB
DB
DB
FF
E7
C3
ENDCHAR
STARTCHAR 088
ENCODING 88
SWIDTH 648 0
DWIDTH 9 0
BBX 8 10 0 0
BITMAP
C3
C3
66
3C
18
18
3C
66
C3
C3
ENDCHAR
STARTCHAR 089
ENCODING 89
SWIDTH 648 0
DWIDTH 9 0
BBX 8 10 0 0
BITMAP
C3
C3
66
3C
18
18
18
18
18
18
ENDCHAR
STARTCHAR 090
ENCODING 90
SWIDTH 576 0
DWIDTH 8 0
BBX 7 10 0 0
BITMAP
FE
06
06
0C
18
30
60
C0
C0
FE
ENDCHAR
STARTCHAR 091
ENCODING 91
SWIDTH 432 0
DWIDTH 6 0
BBX 5 12 0 -1
BITMAP
F8
C0
C0
C0
C0
C0
C0
C0
C0
C0
C0
F8
ENDCHAR
STARTCHAR 092
ENCODING 92
SWIDTH 648 0
DWIDTH 9 0
BBX 8 10 0 0
BITMAP
C0
60
60
30
18
18
0C
06
06
03
ENDCHAR
STARTCHAR 093
ENCODING 93
SWIDTH 432 0
DWIDTH 6 0
BBX 5 12 0 -1
BITMAP
F8
18
18
18
18
18
18
18
18
18
18
F8
ENDCHAR
STARTCHAR 094
ENCODING 94
SWIDTH 504 0
DWIDTH 7 0
BBX 6 4 0 6
BITMAP
30
78
CC
84
ENDCHAR
STARTCHAR 095
ENCODING 95
SWIDTH 648 0
DWIDTH 9 0
BBX 8 1 0 -1
BITMAP
FF
ENDCHAR
STARTCHAR 096
ENCODING 96
SWIDTH 360 0
DWIDTH 5 0
BBX 4 3 0 8
BITMAP
C0
60
30
ENDCHAR
STARTCHAR 097
ENCODING 97
SWIDTH 648 0
DWIDTH 9 0
BBX 8 7 0 0
BITMAP
3E
63
03
7F
C3
C7
7B
ENDCHAR
STARTCHAR 098
ENCODING 98
SWIDTH 648 0
DWIDTH 9 0
BBX 8 10 0 0
BITMAP
C0
C0
C0
DC
E6
C3
C3
C3
E6
DC
ENDCHAR
STARTCHAR 099
ENCODING 99
SWIDTH 648 0
DWIDTH 9 0
BBX 8 7 0 0
BITMAP
3E
63
C0
C0
C0
63
3E
ENDCHAR
STARTCHAR 100
ENCODING 100
SWIDTH 648 0
DWIDTH 9 0
BBX 8 10 0 0
BITMAP
03
03
03
3B
67
C3
C3
C3
67
3B
ENDCHAR
STARTCHAR 101
ENCODING 101
SWIDTH 648 0
DWIDTH 9 0
BBX 8 7 0 0
BITMAP
3C
66
C3
FF
C0
63
3E
ENDCHAR
STARTCHAR 102
ENCODING 102
SWIDTH 648 0
DWIDTH 9 0
BBX 8 10 0 0
BITMAP
1E
33
33
30
30
FC
30
30
30
30
ENDCHAR
STARTCHAR 103
ENCODING 103
SWIDTH 648 0
DWIDTH 9 0
BBX 8 10 0 -3
BITMAP
7D
C7
C6
C6
7C
C0
7E
C3
C3
7E
ENDCHAR
STARTCHAR 104
ENCODING 104
SWIDTH 648 0
DWIDTH 9 0
BBX 8 10 0 0
BITMAP
C0
C0
C0
DC
E6
C3
C3
C3
C3
C3
ENDCHAR
STARTCHAR 105
ENCODING 105
SWIDTH 504 0
DWIDTH 7 0
BBX 6 10 0 0
BITMAP
30
30
00
70
30
30
30
30
30
FC
ENDCHAR
STARTCHAR 106
ENCODING 106
SWIDTH 576 0
DWIDTH 8 0
BBX 7 13 0 -3
BITMAP
06
06
00
1E
06
06
06
06
06
C6
C6
C6
7C
ENDCHAR
STARTCHAR 107
ENCODING 107
SWIDTH 576 0
DWIDTH 8 0
BBX 7 10 0 0
BITMAP
C0
C0
C0
CC
D8
F0
F0
D8
CC
C6
ENDCHAR
STARTCHAR 108
ENCODING 108
SWIDTH 504 0
DWIDTH 7 0
BBX 6 10 0 0
BITMAP
70
30
30
30
30
30
30
30
30
FC
ENDCHAR
STARTCHAR 109
ENCODING 109
SWIDTH 648 0
DWIDTH 9 0
BBX 8 7 0 0
BITMAP
B6
DB
DB
DB
DB
DB
DB
ENDCHAR
STARTCHAR 110
ENCODING 110
SWIDTH 648 0
DWIDTH 9 0
BBX 8 7 0 0
BITMAP
DC
E6
C3
C3
C3
C3
C3
ENDCHAR
STARTCHAR 111
ENCODING 111
SWIDTH 648 0
DWIDTH 9 0
BBX 8 7 0 0
BITMAP
3C
66
C3
C3
C3
66
3C
ENDCHAR
STARTCHAR 112
ENCODING 112
SWIDTH 648 0
DWIDTH 9 0
BBX 8 10 0 -3
BITMAP
DC
E6
C3
C3
C3
E6
DC
C0
C0
C0
ENDCHAR
STARTCHAR 113
ENCODING 113
SWIDTH 648 0
DWIDTH 9 0
BBX 8 10 0 -3
BITMAP
3B
67
C3
C3
C3
67
3B
03
03
03
ENDCHAR
STARTCHAR 114
ENCODING 114
SWIDTH 648 0
DWIDTH 9 0
BBX 8 7 0 0
BITMAP
DE
73
60
60
60
60
60
ENDCHAR
STARTCHAR 115
ENCODING 115
SWIDTH 648 0
DWIDTH 9 0
BBX 8 7 0 0
BITMAP
7E
C3
C0
7E
03
C3
7E
ENDCHAR
STARTCHAR 116
ENCODING 116
SWIDTH 648 0
DWIDTH 9 0
BBX 8 9 0 0
BITMAP
30
30
FC
30
30
30
30
33
1E
ENDCHAR
STARTCHAR 117
ENCODING 117
SWIDTH 648 0
DWIDTH 9 0
BBX 8 7 0 0
BITMAP
C3
C3
C3
C3
C3
67
3B
ENDCHAR
STARTCHAR 118
ENCODING 118
SWIDTH 648 0
DWIDTH 9 0
BBX 8 7 0 0
BITMAP
C3
C3
66
66
3C
3C
18
ENDCHAR
STARTCHAR 119
ENCODING 119
SWIDTH 648 0
DWIDTH 9 0
BBX 8 7 0 0
BITMAP
C3
C3
DB
DB
DB
FF
66
ENDCHAR
STARTCHAR 120
ENCODING 120
SWIDTH 648 0
DWIDTH 9 0
BBX 8 7 0 0
BITMAP
C3
66
3C
18
3C
66
C3
ENDCHAR
STARTCHAR 121
ENCODING 121
SWIDTH 648 0
DWIDTH 9 0
BBX 8 10 0 -3
BITMAP
C3
C3
C3
C3
C3
67
3B
03
C6
7C
ENDCHAR
STARTCHAR 122
ENCODING 122
SWIDTH 504 0
DWIDTH 7 0
BBX 6 7 0 0
BITMAP
FC
0C
18
30
60
C0
FC
ENDCHAR
STARTCHAR 123
ENCODING 123
SWIDTH 432 0
DWIDTH 6 0
BBX 5 12 0 -1
BITMAP
38
60
60
60
60
C0
C0
60
60
60
60
38
ENDCHAR
STARTCHAR 124
ENCODING 124
SWIDTH 216 0
DWIDTH 3 0
BBX 2 10 0 0
BITMAP
C0
C0
C0
C0
C0
C0
C0
C0
C0
C0
ENDCHAR
STARTCHAR 125
ENCODING 125
SWIDTH 432 0
DWIDTH 6 0
BBX 5 12 0 -1
BITMAP
E0
30
30
30
30
18
18
30
30
30
30
E0
ENDCHAR
STARTCHAR 126
ENCODING 126
SWIDTH 648 0
DWIDTH 9 0
BBX 8 3 0 7
BITMAP
73
DB
CE
ENDCHAR
STARTCHAR 127
ENCODING 127
SWIDTH 72 0
DWIDTH 1 0
BBX 0 0 0 0
BITMAP
ENDCHAR
STARTCHAR 128
ENCODING 128
SWIDTH 864 0
DWIDTH 12 0
BBX 11 11 0 0
BITMAP
5540
8020
1500
A0A0
0400
AAA0
0400
A0A0
1500
8020
5540
ENDCHAR
STARTCHAR 129
ENCODING 129
SWIDTH 864 0
DWIDTH 12 0
BBX 11 11 0 0
BITMAP
7FC0
8020
9F20
B1A0
A4A0
AAA0
A4A0
B1A0
9F20
8020
7FC0
ENDCHAR
STARTCHAR 130
ENCODING 130
SWIDTH 576 0
DWIDTH 8 0
BBX 7 12 0 -1
BITMAP
10
28
48
50
20
5C
92
AC
88
74
04
38
ENDCHAR
STARTCHAR 131
ENCODING 131
SWIDTH 648 0
DWIDTH 9 0
BBX 8 9 0 0
BITMAP
70
98
8C
ED
6C
0D
08
10
60
ENDCHAR
STARTCHAR 132
ENCODING 132
SWIDTH 936 0
DWIDTH 13 0
BBX 12 7 0 2
BITMAP
C030
E070
F9F0
F9F0
F9F0
E070
C030
ENDCHAR
STARTCHAR 133
ENCODING 133
SWIDTH 648 0
DWIDTH 9 0
BBX 8 2 0 0
BITMAP
DB
DB
ENDCHAR
STARTCHAR 134
ENCODING 134
SWIDTH 72 0
DWIDTH 1 0
BBX 0 0 0 0
BITMAP
ENDCHAR
STARTCHAR 135
ENCODING 135
SWIDTH 72 0
DWIDTH 1 0
BBX 0 0 0 0
BITMAP
ENDCHAR
STARTCHAR 136
ENCODING 136
SWIDTH 72 0
DWIDTH 1 0
BBX 0 0 0 0
BITMAP
ENDCHAR
STARTCHAR 137
ENCODING 137
SWIDTH 72 0
DWIDTH 1 0
BBX 0 0 0 0
BITMAP
ENDCHAR
STARTCHAR 138
ENCODING 138
SWIDTH 72 0
DWIDTH 1 0
BBX 0 0 0 0
BITMAP
ENDCHAR
STARTCHAR 139
ENCODING 139
SWIDTH 72 0
DWIDTH 1 0
BBX 0 0 0 0
BITMAP
ENDCHAR
STARTCHAR 140
ENCODING 140
SWIDTH 72 0
DWIDTH 1 0
BBX 0 0 0 0
BITMAP
ENDCHAR
STARTCHAR 141
ENCODING 141
SWIDTH 72 0
DWIDTH 1 0
BBX 0 0 0 0
BITMAP
ENDCHAR
STARTCHAR 142
ENCODING 142
SWIDTH 72 0
DWIDTH 1 0
BBX 0 0 0 0
BITMAP
ENDCHAR
STARTCHAR 143
ENCODING 143
SWIDTH 72 0
DWIDTH 1 0
BBX 0 0 0 0
BITMAP
ENDCHAR
STARTCHAR 144
ENCODING 144
SWIDTH 72 0
DWIDTH 1 0
BBX 0 0 0 0
BITMAP
ENDCHAR
STARTCHAR 145
ENCODING 145
SWIDTH 72 0
DWIDTH 1 0
BBX 0 0 0 0
BITMAP
ENDCHAR
STARTCHAR 146
ENCODING 146
SWIDTH 72 0
DWIDTH 1 0
BBX 0 0 0 0
BITMAP
ENDCHAR
STARTCHAR 147
ENCODING 147
SWIDTH 72 0
DWIDTH 1 0
BBX 0 0 0 0
BITMAP
ENDCHAR
STARTCHAR 148
ENCODING 148
SWIDTH 72 0
DWIDTH 1 0
BBX 0 0 0 0
BITMAP
ENDCHAR
STARTCHAR 149
ENCODING 149
SWIDTH 72 0
DWIDTH 1 0
BBX 0 0 0 0
BITMAP
ENDCHAR
STARTCHAR 150
ENCODING 150
SWIDTH 72 0
DWIDTH 1 0
BBX 0 0 0 0
BITMAP
ENDCHAR
STARTCHAR 151
ENCODING 151
SWIDTH 72 0
DWIDTH 1 0
BBX 0 0 0 0
BITMAP
ENDCHAR
STARTCHAR 152
ENCODING 152
SWIDTH 72 0
DWIDTH 1 0
BBX 0 0 0 0
BITMAP
ENDCHAR
STARTCHAR 153
ENCODING 153
SWIDTH 72 0
DWIDTH 1 0
BBX 0 0 0 0
BITMAP
ENDCHAR
STARTCHAR 154
ENCODING 154
SWIDTH 72 0
DWIDTH 1 0
BBX 0 0 0 0
BITMAP
ENDCHAR
STARTCHAR 155
ENCODING 155
SWIDTH 72 0
DWIDTH 1 0
BBX 0 0 0 0
BITMAP
ENDCHAR
STARTCHAR 156
ENCODING 156
SWIDTH 72 0
DWIDTH 1 0
BBX 0 0 0 0
BITMAP
ENDCHAR
STARTCHAR 157
ENCODING 157
SWIDTH 72 0
DWIDTH 1 0
BBX 0 0 0 0
BITMAP
ENDCHAR
STARTCHAR 158
ENCODING 158
SWIDTH 72 0
DWIDTH 1 0
BBX 0 0 0 0
BITMAP
ENDCHAR
STARTCHAR 159
ENCODING 159
SWIDTH 72 0
DWIDTH 1 0
BBX 0 0 0 0
BITMAP
ENDCHAR
STARTCHAR 160
ENCODING 160
SWIDTH 648 0
DWIDTH 9 0
BBX 0 0 0 0
BITMAP
ENDCHAR
STARTCHAR 161
ENCODING 161
SWIDTH 216 0
DWIDTH 3 0
BBX 2 10 0 0
BITMAP
C0
00
C0
C0
C0
C0
C0
C0
C0
C0
ENDCHAR
STARTCHAR 162
ENCODING 162
SWIDTH 576 0
DWIDTH 8 0
BBX 7 8 0 0
BITMAP
04
7C
CE
D0
D0
E6
7C
40
ENDCHAR
STARTCHAR 163
ENCODING 163
SWIDTH 648 0
DWIDTH 9 0
BBX 8 10 0 -1
BITMAP
1E
33
30
30
7C
30
30
F8
BF
E0
ENDCHAR
STARTCHAR 164
ENCODING 164
SWIDTH 576 0
DWIDTH 8 0
BBX 7 7 0 2
BITMAP
C6
FE
6C
44
6C
FE
C6
ENDCHAR
STARTCHAR 165
ENCODING 165
SWIDTH 648 0
DWIDTH 9 0
BBX 8 10 0 0
BITMAP
C3
C3
66
3C
7E
18
7E
18
18
18
ENDCHAR
STARTCHAR 166
ENCODING 166
SWIDTH 216 0
DWIDTH 3 0
BBX 2 11 0 -1
BITMAP
C0
C0
C0
C0
C0
00
00
C0
C0
C0
C0
ENDCHAR
STARTCHAR 167
ENCODING 167
SWIDTH 504 0
DWIDTH 7 0
BBX 6 11 0 -1
BITMAP
78
CC
C0
78
CC
CC
CC
78
0C
CC
78
ENDCHAR
STARTCHAR 168
ENCODING 168
SWIDTH 504 0
DWIDTH 7 0
BBX 6 2 0 9
BITMAP
CC
CC
ENDCHAR
STARTCHAR 169
ENCODING 169
SWIDTH 648 0
DWIDTH 9 0
BBX 8 11 0 0
BITMAP
3C
7E
C3
BD
A5
A1
A5
BD
C3
7E
3C
ENDCHAR
STARTCHAR 170
ENCODING 170
SWIDTH 432 0
DWIDTH 6 0
BBX 5 7 0 3
BITMAP
F0
18
F8
98
F8
00
F8
ENDCHAR
STARTCHAR 171
ENCODING 171
SWIDTH 648 0
DWIDTH 9 0
BBX 8 8 0 1
BITMAP
1B
36
6C
D8
D8
6C
36
1B
ENDCHAR
STARTCHAR 172
ENCODING 172
SWIDTH 576 0
DWIDTH 8 0
BBX 7 5 0 2
BITMAP
FE
FE
06
06
06
ENDCHAR
STARTCHAR 173
ENCODING 173
SWIDTH 504 0
DWIDTH 7 0
BBX 6 1 0 4
BITMAP
FC
ENDCHAR
STARTCHAR 174
ENCODING 174
SWIDTH 648 0
DWIDTH 9 0
BBX 8 11 0 0
BITMAP
3C
7E
C3
BD
A5
BD
A9
AD
C3
7E
3C
ENDCHAR
STARTCHAR 175
ENCODING 175
SWIDTH 504 0
DWIDTH 7 0
BBX 6 2 0 9
BITMAP
FC
FC
ENDCHAR
STARTCHAR 176
ENCODING 176
SWIDTH 504 0
DWIDTH 7 0
BBX 6 4 0 6
BITMAP
78
CC
CC
78
ENDCHAR
STARTCHAR 177
ENCODING 177
SWIDTH 648 0
DWIDTH 9 0
BBX 8 10 0 0
BITMAP
18
18
18
FF
FF
18
18
18
FF
FF
ENDCHAR
STARTCHAR 178
ENCODING 178
SWIDTH 432 0
DWIDTH 6 0
BBX 5 7 0 4
BITMAP
70
98
18
30
60
C0
F8
ENDCHAR
STARTCHAR 179
ENCODING 179
SWIDTH 432 0
DWIDTH 6 0
BBX 5 7 0 4
BITMAP
70
98
18
30
18
98
70
ENDCHAR
STARTCHAR 180
ENCODING 180
SWIDTH 360 0
DWIDTH 5 0
BBX 4 3 0 8
BITMAP
30
60
C0
ENDCHAR
STARTCHAR 181
ENCODING 181
SWIDTH 576 0
DWIDTH 8 0
BBX 7 10 0 -3
BITMAP
C6
C6
C6
C6
C6
EE
FA
C0
C0
C0
ENDCHAR
STARTCHAR 182
ENCODING 182
SWIDTH 576 0
DWIDTH 8 0
BBX 7 10 0 0
BITMAP
7E
FE
F6
F6
F6
76
36
36
36
36
ENDCHAR
STARTCHAR 183
ENCODING 183
SWIDTH 288 0
DWIDTH 4 0
BBX 3 3 0 3
BITMAP
40
E0
40
ENDCHAR
STARTCHAR 184
ENCODING 184
SWIDTH 432 0
DWIDTH 6 0
BBX 5 3 0 -3
BITMAP
18
D8
70
ENDCHAR
STARTCHAR 185
ENCODING 185
SWIDTH 360 0
DWIDTH 5 0
BBX 4 7 0 4
BITMAP
60
E0
60
60
60
60
F0
ENDCHAR
STARTCHAR 186
ENCODING 186
SWIDTH 432 0
DWIDTH 6 0
BBX 5 6 0 4
BITMAP
70
D8
D8
70
00
F8
ENDCHAR
STARTCHAR 187
ENCODING 187
SWIDTH 648 0
DWIDTH 9 0
BBX 8 8 0 1
BITMAP
D8
6C
36
1B
1B
36
6C
D8
ENDCHAR
STARTCHAR 188
ENCODING 188
SWIDTH 648 0
DWIDTH 9 0
BBX 8 11 0 0
BITMAP
60
E0
60
60
61
63
F7
0F
1B
1F
03
ENDCHAR
STARTCHAR 189
ENCODING 189
SWIDTH 648 0
DWIDTH 9 0
BBX 8 11 0 0
BITMAP
60
E0
60
60
6E
73
F3
06
0C
18
1F
ENDCHAR
STARTCHAR 190
ENCODING 190
SWIDTH 648 0
DWIDTH 9 0
BBX 8 11 0 0
BITMAP
70
98
18
30
19
9B
77
0F
1B
1F
03
ENDCHAR
STARTCHAR 191
ENCODING 191
SWIDTH 576 0
DWIDTH 8 0
BBX 7 10 0 0
BITMAP
18
18
00
18
30
60
C0
C6
C6
7C
ENDCHAR
STARTCHAR 192
ENCODING 192
SWIDTH 648 0
DWIDTH 9 0
BBX 8 12 0 0
BITMAP
60
30
18
00
3C
66
C3
C3
FF
C3
C3
C3
ENDCHAR
STARTCHAR 193
ENCODING 193
SWIDTH 648 0
DWIDTH 9 0
BBX 8 12 0 0
BITMAP
06
0C
18
00
3C
66
C3
C3
FF
C3
C3
C3
ENDCHAR
STARTCHAR 194
ENCODING 194
SWIDTH 648 0
DWIDTH 9 0
BBX 8 12 0 0
BITMAP
18
3C
66
00
3C
66
C3
C3
FF
C3
C3
C3
ENDCHAR
STARTCHAR 195
ENCODING 195
SWIDTH 648 0
DWIDTH 9 0
BBX 8 12 0 0
BITMAP
32
7E
4C
00
3C
66
C3
C3
FF
C3
C3
C3
ENDCHAR
STARTCHAR 196
ENCODING 196
SWIDTH 648 0
DWIDTH 9 0
BBX 8 11 0 0
BITMAP
66
66
00
3C
66
C3
C3
FF
C3
C3
C3
ENDCHAR
STARTCHAR 197
ENCODING 197
SWIDTH 648 0
DWIDTH 9 0
BBX 8 12 0 0
BITMAP
18
24
24
18
3C
66
C3
C3
FF
C3
C3
C3
ENDCHAR
STARTCHAR 198
ENCODING 198
SWIDTH 648 0
DWIDTH 9 0
BBX 8 10 0 0
BITMAP
1F
3C
6C
6C
CC
FF
CC
CC
CC
CF
ENDCHAR
STARTCHAR 199
ENCODING 199
SWIDTH 648 0
DWIDTH 9 0
BBX 8 13 0 -3
BITMAP
3E
63
C1
C0
C0
C0
C0
C1
63
3E
0C
6C
38
ENDCHAR
STARTCHAR 200
ENCODING 200
SWIDTH 576 0
DWIDTH 8 0
BBX 7 12 0 0
BITMAP
60
30
18
00
FE
C0
C0
FC
C0
C0
C0
FE
ENDCHAR
STARTCHAR 201
ENCODING 201
SWIDTH 576 0
DWIDTH 8 0
BBX 7 12 0 0
BITMAP
0C
18
30
00
FE
C0
C0
FC
C0
C0
C0
FE
ENDCHAR
STARTCHAR 202
ENCODING 202
SWIDTH 576 0
DWIDTH 8 0
BBX 7 12 0 0
BITMAP
18
3C
66
00
FE
C0
C0
FC
C0
C0
C0
FE
ENDCHAR
STARTCHAR 203
ENCODING 203
SWIDTH 576 0
DWIDTH 8 0
BBX 7 11 0 0
BITMAP
66
66
00
FE
C0
C0
FC
C0
C0
C0
FE
ENDCHAR
STARTCHAR 204
ENCODING 204
SWIDTH 504 0
DWIDTH 7 0
BBX 6 12 0 0
BITMAP
C0
60
30
00
FC
30
30
30
30
30
30
FC
ENDCHAR
STARTCHAR 205
ENCODING 205
SWIDTH 504 0
DWIDTH 7 0
BBX 6 12 0 0
BITMAP
18
30
60
00
FC
30
30
30
30
30
30
FC
ENDCHAR
STARTCHAR 206
ENCODING 206
SWIDTH 504 0
DWIDTH 7 0
BBX 6 12 0 0
BITMAP
30
78
CC
00
FC
30
30
30
30
30
30
FC
ENDCHAR
STARTCHAR 207
ENCODING 207
SWIDTH 504 0
DWIDTH 7 0
BBX 6 11 0 0
BITMAP
CC
CC
00
FC
30
30
30
30
30
30
FC
ENDCHAR
STARTCHAR 208
ENCODING 208
SWIDTH 720 0
DWIDTH 10 0
BBX 9 10 0 0
BITMAP
7E00
6300
6180
6180
F980
F980
6180
6180
6300
7E00
ENDCHAR
STARTCHAR 209
ENCODING 209
SWIDTH 648 0
DWIDTH 9 0
BBX 8 12 0 0
BITMAP
32
7E
4C
00
C3
E3
F3
FB
DF
CF
C7
C3
ENDCHAR
STARTCHAR 210
ENCODING 210
SWIDTH 648 0
DWIDTH 9 0
BBX 8 12 0 0
BITMAP
60
30
18
00
3C
66
C3
C3
C3
C3
66
3C
ENDCHAR
STARTCHAR 211
ENCODING 211
SWIDTH 648 0
DWIDTH 9 0
BBX 8 12 0 0
BITMAP
06
0C
18
00
3C
66
C3
C3
C3
C3
66
3C
ENDCHAR
STARTCHAR 212
ENCODING 212
SWIDTH 648 0
DWIDTH 9 0
BBX 8 12 0 0
BITMAP
18
3C
66
00
3C
66
C3
C3
C3
C3
66
3C
ENDCHAR
STARTCHAR 213
ENCODING 213
SWIDTH 648 0
DWIDTH 9 0
BBX 8 12 0 0
BITMAP
32
7E
4C
00
3C
66
C3
C3
C3
C3
66
3C
ENDCHAR
STARTCHAR 214
ENCODING 214
SWIDTH 648 0
DWIDTH 9 0
BBX 8 11 0 0
BITMAP
66
66
00
3C
66
C3
C3
C3
C3
66
3C
ENDCHAR
STARTCHAR 215
ENCODING 215
SWIDTH 576 0
DWIDTH 8 0
BBX 7 8 0 0
BITMAP
82
C6
6C
38
38
6C
C6
82
ENDCHAR
STARTCHAR 216
ENCODING 216
SWIDTH 648 0
DWIDTH 9 0
BBX 8 12 0 -1
BITMAP
01
3F
66
C7
CB
CB
D3
D3
E3
66
FC
80
ENDCHAR
STARTCHAR 217
ENCODING 217
SWIDTH 648 0
DWIDTH 9 0
BBX 8 12 0 0
BITMAP
60
30
18
00
C3
C3
C3
C3
C3
C3
66
3C
ENDCHAR
STARTCHAR 218
ENCODING 218
SWIDTH 648 0
DWIDTH 9 0
BBX 8 12 0 0
BITMAP
06
0C
18
00
C3
C3
C3
C3
C3
C3
66
3C
ENDCHAR
STARTCHAR 219
ENCODING 219
SWIDTH 648 0
DWIDTH 9 0
BBX 8 12 0 0
BITMAP
18
3C
66
00
C3
C3
C3
C3
C3
C3
66
3C
ENDCHAR
STARTCHAR 220
ENCODING 220
SWIDTH 648 0
DWIDTH 9 0
BBX 8 11 0 0
BITMAP
66
66
00
C3
C3
C3
C3
C3
C3
66
3C
ENDCHAR
STARTCHAR 221
ENCODING 221
SWIDTH 648 0
DWIDTH 9 0
BBX 8 12 0 0
BITMAP
06
0C
18
00
C3
66
3C
18
18
18
18
18
ENDCHAR
STARTCHAR 222
ENCODING 222
SWIDTH 576 0
DWIDTH 8 0
BBX 7 10 0 0
BITMAP
F0
60
7C
66
66
66
7C
60
60
F0
ENDCHAR
STARTCHAR 223
ENCODING 223
SWIDTH 576 0
DWIDTH 8 0
BBX 7 10 0 0
BITMAP
3C
66
C6
CC
D8
CC
C6
C6
C6
DC
ENDCHAR
STARTCHAR 224
ENCODING 224
SWIDTH 648 0
DWIDTH 9 0
BBX 8 11 0 0
BITMAP
60
30
18
00
3E
43
03
7F
C3
C7
7B
ENDCHAR
STARTCHAR 225
ENCODING 225
SWIDTH 648 0
DWIDTH 9 0
BBX 8 11 0 0
BITMAP
0C
18
30
00
3E
43
03
7F
C3
C7
7B
ENDCHAR
STARTCHAR 226
ENCODING 226
SWIDTH 648 0
DWIDTH 9 0
BBX 8 11 0 0
BITMAP
18
3C
66
00
3E
43
03
7F
C3
C7
7B
ENDCHAR
STARTCHAR 227
ENCODING 227
SWIDTH 648 0
DWIDTH 9 0
BBX 8 11 0 0
BITMAP
32
7E
4C
00
3E
43
03
7F
C3
C7
7B
ENDCHAR
STARTCHAR 228
ENCODING 228
SWIDTH 648 0
DWIDTH 9 0
BBX 8 10 0 0
BITMAP
66
66
00
3E
43
03
7F
C3
C7
7B
ENDCHAR
STARTCHAR 229
ENCODING 229
SWIDTH 648 0
DWIDTH 9 0
BBX 8 11 0 0
BITMAP
18
24
24
18
3E
43
03
7F
C3
C7
7B
ENDCHAR
STARTCHAR 230
ENCODING 230
SWIDTH 648 0
DWIDTH 9 0
BBX 8 7 0 0
BITMAP
76
9B
1B
7E
D8
D9
6E
ENDCHAR
STARTCHAR 231
ENCODING 231
SWIDTH 648 0
DWIDTH 9 0
BBX 8 10 0 -3
BITMAP
3E
63
C0
C0
C0
63
3E
0C
6C
38
ENDCHAR
STARTCHAR 232
ENCODING 232
SWIDTH 648 0
DWIDTH 9 0
BBX 8 11 0 0
BITMAP
60
30
18
00
3C
66
C3
FF
C0
63
3E
ENDCHAR
STARTCHAR 233
ENCODING 233
SWIDTH 648 0
DWIDTH 9 0
BBX 8 11 0 0
BITMAP
0C
18
30
00
3C
66
C3
FF
C0
63
3E
ENDCHAR
STARTCHAR 234
ENCODING 234
SWIDTH 648 0
DWIDTH 9 0
BBX 8 11 0 0
BITMAP
18
3C
66
00
3C
66
C3
FF
C0
63
3E
ENDCHAR
STARTCHAR 235
ENCODING 235
SWIDTH 648 0
DWIDTH 9 0
BBX 8 10 0 0
BITMAP
66
66
00
3C
66
C3
FF
C0
63
3E
ENDCHAR
STARTCHAR 236
ENCODING 236
SWIDTH 504 0
DWIDTH 7 0
BBX 6 11 0 0
BITMAP
C0
60
30
00
70
30
30
30
30
30
FC
ENDCHAR
STARTCHAR 237
ENCODING 237
SWIDTH 504 0
DWIDTH 7 0
BBX 6 11 0 0
BITMAP
18
30
60
00
70
30
30
30
30
30
FC
ENDCHAR
STARTCHAR 238
ENCODING 238
SWIDTH 504 0
DWIDTH 7 0
BBX 6 11 0 0
BITMAP
30
78
CC
00
70
30
30
30
30
30
FC
ENDCHAR
STARTCHAR 239
ENCODING 239
SWIDTH 504 0
DWIDTH 7 0
BBX 6 10 0 0
BITMAP
CC
CC
00
70
30
30
30
30
30
FC
ENDCHAR
STARTCHAR 240
ENCODING 240
SWIDTH 648 0
DWIDTH 9 0
BBX 8 12 0 0
BITMAP
88
D8
70
70
D8
8C
3E
67
C3
C3
66
3C
ENDCHAR
STARTCHAR 241
ENCODING 241
SWIDTH 648 0
DWIDTH 9 0
BBX 8 11 0 0
BITMAP
32
7E
4C
00
DC
E6
C3
C3
C3
C3
C3
ENDCHAR
STARTCHAR 242
ENCODING 242
SWIDTH 648 0
DWIDTH 9 0
BBX 8 11 0 0
BITMAP
60
30
18
00
3C
66
C3
C3
C3
66
3C
ENDCHAR
STARTCHAR 243
ENCODING 243
SWIDTH 648 0
DWIDTH 9 0
BBX 8 11 0 0
BITMAP
0C
18
30
00
3C
66
C3
C3
C3
66
3C
ENDCHAR
STARTCHAR 244
ENCODING 244
SWIDTH 648 0
DWIDTH 9 0
BBX 8 11 0 0
BITMAP
18
3C
66
00
3C
66
C3
C3
C3
66
3C
ENDCHAR
STARTCHAR 245
ENCODING 245
SWIDTH 648 0
DWIDTH 9 0
BBX 8 11 0 0
BITMAP
32
7E
4C
00
3C
66
C3
C3
C3
66
3C
ENDCHAR
STARTCHAR 246
ENCODING 246
SWIDTH 648 0
DWIDTH 9 0
BBX 8 10 0 0
BITMAP
66
66
00
3C
66
C3
C3
C3
66
3C
ENDCHAR
STARTCHAR 247
ENCODING 247
SWIDTH 648 0
DWIDTH 9 0
BBX 8 10 0 0
BITMAP
18
18
00
00
FF
FF
00
00
18
18
ENDCHAR
STARTCHAR 248
ENCODING 248
SWIDTH 648 0
DWIDTH 9 0
BBX 8 9 0 -1
BITMAP
01
3F
66
CF
DB
F3
66
FC
80
ENDCHAR
STARTCHAR 249
ENCODING 249
SWIDTH 648 0
DWIDTH 9 0
BBX 8 11 0 0
BITMAP
60
30
18
00
C3
C3
C3
C3
C3
67
3B
ENDCHAR
STARTCHAR 250
ENCODING 250
SWIDTH 648 0
DWIDTH 9 0
BBX 8 11 0 0
BITMAP
0C
18
30
00
C3
C3
C3
C3
C3
67
3B
ENDCHAR
STARTCHAR 251
ENCODING 251
SWIDTH 648 0
DWIDTH 9 0
BBX 8 11 0 0
BITMAP
18
3C
66
00
C3
C3
C3
C3
C3
67
3B
ENDCHAR
STARTCHAR 252
ENCODING 252
SWIDTH 648 0
DWIDTH 9 0
BBX 8 10 0 0
BITMAP
66
66
00
C3
C3
C3
C3
C3
67
3B
ENDCHAR
STARTCHAR 253
ENCODING 253
SWIDTH 648 0
DWIDTH 9 0
BBX 8 14 0 -3
BITMAP
0C
18
30
00
C3
C3
C3
C3
C3
67
3B
03
C6
7C
ENDCHAR
STARTCHAR 254
ENCODING 254
SWIDTH 576 0
DWIDTH 8 0
BBX 7 12 0 -3
BITMAP
E0
60
60
7C
66
66
66
66
7C
60
60
E0
ENDCHAR
STARTCHAR 255
ENCODING 255
SWIDTH 648 0
DWIDTH 9 0
BBX 8 13 0 -3
BITMAP
66
66
00
C3
C3
C3
C3
C3
67
3B
03
C6
7C
ENDCHAR
ENDFONT
